<?xml version="1.0" encoding="utf-8"?>
<!-- Generator: Adobe Illustrator 27.2.0, SVG Export Plug-In . SVG Version: 6.00 Build 0)  -->
<svg version="1.1" id="Layer_1" xmlns="http://www.w3.org/2000/svg" xmlns:xlink="http://www.w3.org/1999/xlink" x="0px" y="0px"
	 viewBox="0 0 200 200" style="enable-background:new 0 0 200 200;" xml:space="preserve">
<style type="text/css">
	.st0{fill:#FFFFFF;}
</style>
<g>
	<path class="st0" d="M121.6,82.4v94.4c0,4-1.6,7.6-4.2,10.2l-8.8,8.8c-2.8,2.8-6,4.2-9.8,4.2H59c-4,0-7-1.4-9.8-4l-12-12L48,173
		l10.2,10.2c0.8,1,1.8,1.4,2.8,1.4h35.4c1,0,2-0.6,2.8-1.2l4-4c0.8-0.8,1.2-1.8,1.2-2.8V148l-9.6,9.6c-2.8,2.8-6.2,4.2-9.8,4.2H59
		c-3.8,0-7-1.2-9.8-4l-8.8-8.8c-2.8-2.8-4.2-6.2-4.2-10.2v-49c0-4,1.4-7.6,4.2-10.4l8.8-8.8c2.8-2.8,6-4,9.8-4h25.8
		c3.8,0,7.2,1.4,10,4l10.6,10.6l3.2-14.6h16.2L121.6,82.4z M104.4,102c0-1-0.4-2-1.2-2.8L87.4,83.4c-0.8-0.8-1.8-1.2-2.8-1.2H61.4
		c-1,0-2.2,0.4-2.8,1.2l-4,4c-0.8,0.8-1.4,2-1.4,3.2v47.6c0,1.2,0.6,2,1.2,2.8l4,4c0.8,0.8,2,1.2,2.8,1.2h23.2c1.2,0,2.2-0.4,3-1.2
		l15.8-15.8c0.8-0.8,1.2-1.6,1.2-2.8V102z"/>
	<path class="st0" d="M168.4,82.2v79.6h-17V82.2H136V66.6h15.2V51c0-4.2,1.4-7.6,4.2-10.4l8.2-8.2c2.8-2.8,6-4,9.8-4H200V44h-23.6
		c-1,0-2,0.4-2.8,1.2l-4,4c-0.8,0.8-1.2,2.2-1.2,3.2v14.2H200v15.6H168.4z"/>
</g>
<g>
	<path d="M348.9,82.4v94.4c0,4-1.6,7.6-4.2,10.2l-8.8,8.8c-2.8,2.8-6,4.2-9.8,4.2h-39.8c-4,0-7-1.4-9.8-4l-12-12l10.8-11l10.2,10.2
		c0.8,1,1.8,1.4,2.8,1.4h35.4c1,0,2-0.6,2.8-1.2l4-4c0.8-0.8,1.2-1.8,1.2-2.8V148l-9.6,9.6c-2.8,2.8-6.2,4.2-9.8,4.2h-26
		c-3.8,0-7-1.2-9.8-4l-8.8-8.8c-2.8-2.8-4.2-6.2-4.2-10.2v-49c0-4,1.4-7.6,4.2-10.4l8.8-8.8c2.8-2.8,6-4,9.8-4h25.8
		c3.8,0,7.2,1.4,10,4l10.6,10.6l3.2-14.6h16.2L348.9,82.4z M331.7,102c0-1-0.4-2-1.2-2.8l-15.8-15.8c-0.8-0.8-1.8-1.2-2.8-1.2h-23.2
		c-1,0-2.2,0.4-2.8,1.2l-4,4c-0.8,0.8-1.4,2-1.4,3.2v47.6c0,1.2,0.6,2,1.2,2.8l4,4c0.8,0.8,2,1.2,2.8,1.2h23.2c1.2,0,2.2-0.4,3-1.2
		l15.8-15.8c0.8-0.8,1.2-1.6,1.2-2.8V102z"/>
	<path d="M395.7,82.2v79.6h-17V82.2h-15.4V66.6h15.2V51c0-4.2,1.4-7.6,4.2-10.4l8.2-8.2c2.8-2.8,6-4,9.8-4h26.6V44h-23.6
		c-1,0-2,0.4-2.8,1.2l-4,4c-0.8,0.8-1.2,2.2-1.2,3.2v14.2h31.6v15.6H395.7z"/>
</g>
</svg>
